:version 1.10
:name ASF
:units
  mass 1
  length 1
  angle deg
:documentation
  ASF file generated by Kaydara
:root
  axis xyz
  order  tx ty tz rx ry rz
  position 0 0 0
  orientation 0 0 0
:bonedata
  begin
    id 1
    name LeftUpLegDummy
    direction 1 -2.30186e-007 -8.31532e-007
    length 2.93387
    axis 0 0 0 xyz
  end
  begin
    id 2
    name LeftUpLeg
    direction -1.82929e-007 -1 -1.48925e-009
    length 17.3336
    axis -3.48766 0.00143442 -0.000521554 xyz
    dof rx ry rz
  end
  begin
    id 3
    name LeftLeg
    direction -1.82929e-007 -1 -5.23717e-011
    length 14.9995
    axis 3.68178 -0.00654042 -0.000282425 xyz
    dof rx ry rz
  end
  begin
    id 4
    name LeftFoot
    direction 8.31532e-007 -4.54534e-011 1
    length 6.74421
    axis 1.87234e-006 4.66016e-005 -5.96866e-006 xyz
    dof rx ry rz
  end
  begin
    id 5
    name LeftToes
    direction 0.00818058 -0.00485161 0.999955
    length 3.85048
    axis 1.06247e-005 4.65869e-005 -5.96999e-006 xyz
    dof rx ry rz
  end
  begin
    id 6
    name SpineDummy
    direction -5.8607e-008 0.943407 -0.331637
    length 5.93572
    axis 0 0 0 xyz
  end
  begin
    id 7
    name Spine
    direction -1.04988e-007 0.999988 0.00495137
    length 10.1015
    axis -0.001389 0.000121417 6.61666e-006 xyz
    dof rx ry rz
  end
  begin
    id 8
    name Spine1
    direction 0 0 0
    length 0
    axis -0.001389 0.00012144 6.56766e-006 xyz
    dof rx ry rz
  end
  begin
    id 9
    name RightShoulderDummy
    direction -0.98348 0.17941 -0.0240696
    length 3.59882
    axis -0.001389 0.00012144 6.56766e-006 xyz
  end
  begin
    id 10
    name RightShoulder
    direction -0.978693 0.204882 0.0135597
    length 2.70001
    axis 0.215806 0.000203631 -0.00679732 xyz
    dof rx ry rz
  end
  begin
    id 11
    name RightArm
    direction -1 3.85509e-006 8.31394e-007
    length 10.2459
    axis -23.2009 -0.134239 -0.964098 xyz
    dof rx ry rz
  end
  begin
    id 12
    name RightForeArm
    direction -1 3.85569e-006 8.3129e-007
    length 8.16799
    axis -9.92322 0.0658061 0.17887 xyz
    dof rx ry rz
  end
  begin
    id 13
    name RightHand
    direction -0.992843 -0.0414604 0.112003
    length 5.28593
    axis -0.00960638 0.00330669 -0.185225 xyz
    dof rx ry rz
  end
  begin
    id 14
    name LeftShoulder1Dummy
    direction 0.983523 0.179172 -0.0240748
    length 3.59866
    axis -0.001389 0.00012144 6.56766e-006 xyz
  end
  begin
    id 15
    name LeftShoulder1
    direction 0.978627 0.205195 0.0135605
    length 2.70019
    axis -0.001389 0.00012144 6.57583e-006 xyz
    dof rx ry rz
  end
  begin
    id 16
    name LeftArm
    direction 1 3.51895e-006 -8.60188e-007
    length 10.2459
    axis -23.1894 0.134785 0.967513 xyz
    dof rx ry rz
  end
  begin
    id 17
    name LeftForeArm
    direction 1 3.51921e-006 -7.32029e-007
    length 8.16799
    axis -9.91835 -0.0656957 -0.177789 xyz
    dof rx ry rz
  end
  begin
    id 18
    name LeftHand
    direction 0.992938 -0.0411636 0.11126
    length 5.32135
    axis -0.00960237 -0.00340661 0.185177 xyz
    dof rx ry rz
  end
  begin
    id 19
    name HEadDummy
    direction 1.01974e-006 0.999861 -0.016675
    length 2.99946
    axis -0.001389 0.00012144 6.56766e-006 xyz
  end
  begin
    id 20
    name HEad
    direction -0.0222689 0.980941 0.193023
    length 5.12695
    axis -0.001389 0.00012144 6.56766e-006 xyz
    dof rx ry rz
  end
  begin
    id 21
    name RightUpLegDummy
    direction -1 2.30186e-007 8.31532e-007
    length 2.93387
    axis 0 0 0 xyz
  end
  begin
    id 22
    name RightUpLeg
    direction -1.82966e-007 -1 1.56832e-007
    length 17.3336
    axis -3.4909 -0.000906625 0.00028951 xyz
    dof rx ry rz
  end
  begin
    id 23
    name RightLeg
    direction -1.82786e-007 -1 -1.80317e-007
    length 14.9995
    axis 3.68513 0.0193739 -0.131021 xyz
    dof rx ry rz
  end
  begin
    id 24
    name RightFoot
    direction 8.31721e-007 -4.63324e-011 1
    length 6.74421
    axis 4.81691e-005 -0.120479 -0.188785 xyz
    dof rx ry rz
  end
  begin
    id 25
    name RightToes
    direction 0.00124746 -0.014064 0.9999
    length 3.85082
    axis 0.000481921 0.542163 -0.142575 xyz
    dof rx ry rz
  end
:hierarchy
  begin
    root LeftUpLegDummy SpineDummy RightUpLegDummy
    LeftUpLegDummy LeftUpLeg
    LeftUpLeg LeftLeg
    LeftLeg LeftFoot
    LeftFoot LeftToes
    SpineDummy Spine
    Spine Spine1
    Spine1 RightShoulderDummy LeftShoulder1Dummy HEadDummy
    RightShoulderDummy RightShoulder
    RightShoulder RightArm
    RightArm RightForeArm
    RightForeArm RightHand
    LeftShoulder1Dummy LeftShoulder1
    LeftShoulder1 LeftArm
    LeftArm LeftForeArm
    LeftForeArm LeftHand
    HEadDummy HEad
    RightUpLegDummy RightUpLeg
    RightUpLeg RightLeg
    RightLeg RightFoot
    RightFoot RightToes
  end

:SAMPLES-PER-SECOND 30
:FULLY-SPECIFIED
:DEGREES
66
root  7.32016 34.0925 4.50328 -0.278807 58.9509 -5.65687
LeftUpLeg  -23.5155 2.67763 5.01762
LeftLeg  41.7424 5.83729 4.54742
LeftFoot  -4.9422 -0.0285552 -0.661681
LeftToes  -10.5639 2.48695e-006 -1.03773e-007
Spine  3.50385 -0.87886 1.13073
Spine1  6.97855 -1.93663 2.34822
RightShoulder  0.00540345 3.99364 9.29392
RightArm  -43.0036 -39.3372 63.4412
RightForeArm  36.8288 8.7402 1.54737
RightHand  0.465081 -6.27943 -8.08484
LeftShoulder1  0.0112671 0.0918849 -9.64977
LeftArm  -11.9717 14.8783 -72.678
LeftForeArm  26.2975 -23.2114 -4.32916
LeftHand  0.0577204 5.41681 0.849066
HEad  11.1328 -13.7534 -0.129108
RightUpLeg  -9.63581 -15.4748 4.37366
RightLeg  16.0481 13.0852 2.84487
RightFoot  -8.62 -0.180938 -2.02307
RightToes  -35.4669 -0.182682 -0.286396
67
root  7.56977 34.1226 4.66048 1.10059 57.3661 -4.02451
LeftUpLeg  -23.7478 2.56033 4.36623
LeftLeg  36.5309 5.51405 3.54551
LeftFoot  -1.9569 -0.00400695 -0.234622
LeftToes  -12.9046 2.48695e-006 -1.03773e-007
Spine  3.57271 -0.697111 0.86811
Spine1  7.1084 -1.5065 1.78493
RightShoulder  0.00412102 4.15618 8.80707
RightArm  -45.4466 -37.7452 63.9961
RightForeArm  35.0569 9.20339 1.63236
RightHand  0.420469 -7.0942 -6.39933
LeftShoulder1  0.0138859 -0.658351 -9.4673
LeftArm  -11.4832 14.464 -72.5755
LeftForeArm  25.4472 -24.0324 -4.50231
LeftHand  0.192764 6.31068 3.12228
HEad  11.3343 -13.7083 -0.52115
RightUpLeg  -9.07733 -14.7699 3.45143
RightLeg  15.9403 14.0159 3.01597
RightFoot  -8.32839 -0.180042 -2.09511
RightToes  -35.8433 -0.183248 -0.284358
68
root  7.80941 34.1273 4.80544 1.96631 55.5827 -3.18038
LeftUpLeg  -23.9579 1.56661 4.57004
LeftLeg  30.1008 4.68636 2.32068
LeftFoot  2.3224 -0.0041863 0.206523
LeftToes  -13.0638 2.48695e-006 -1.03773e-007
Spine  3.63428 -0.646852 0.749493
Spine1  7.22299 -1.38144 1.54557
RightShoulder  0.00372612 4.62671 8.37981
RightArm  -47.4428 -35.2903 64.4049
RightForeArm  32.4134 10.2048 1.81548
RightHand  0.395782 -8.20617 -5.13895
LeftShoulder1  0.0168152 -0.853918 -9.61246
LeftArm  -12.2385 13.0001 -71.8206
LeftForeArm  24.3553 -24.5325 -4.60902
LeftHand  0.229103 4.91494 4.95747
HEad  11.0979 -13.5074 -0.643448
RightUpLeg  -8.8583 -14.2218 2.92894
RightLeg  16.0728 15.1788 3.29661
RightFoot  -7.94527 -0.17715 -2.1731
RightToes  -36.1868 -0.185321 -0.283615
69
root  8.09024 34.1084 4.96401 2.43065 53.5042 -2.85089
LeftUpLeg  -23.7173 0.518884 5.36229
LeftLeg  22.7704 4.26723 1.47231
LeftFoot  6.53977 -0.0289781 0.507199
LeftToes  -15.0716 2.48695e-006 -1.03773e-007
Spine  3.71151 -0.655377 0.699241
Spine1  7.36461 -1.40643 1.47215
RightShoulder  0.00424867 5.00503 8.01176
RightArm  -48.5878 -31.9924 64.8846
RightForeArm  29.6095 11.3479 2.02541
RightHand  0.412872 -8.65392 -5.07876
LeftShoulder1  0.0198351 -1.02234 -9.76749
LeftArm  -13.3482 11.2704 -70.5602
LeftForeArm  24.5573 -27.5006 -5.25994
LeftHand  0.17198 4.49717 4.00169
HEad  10.7265 -13.1678 -0.606318
RightUpLeg  -8.62239 -13.4963 2.62202
RightLeg  16.2667 16.3509 3.60125
RightFoot  -7.94902 -0.189767 -2.3534
RightToes  -36.0805 -0.187413 -0.284304
70
root  8.41184 34.056 5.14961 2.33976 51.0798 -3.17037
LeftUpLeg  -23.1182 0.287999 6.63588
LeftLeg  15.3645 4.18888 0.863533
LeftFoot  10.2903 -0.0678737 0.753784
LeftToes  -19.0106 2.48695e-006 -1.03773e-007
Spine  3.84051 -0.665661 0.767509
Spine1  7.6034 -1.44855 1.64207
RightShoulder  0.00559719 5.12941 7.54964
RightArm  -47.9821 -28.3405 65.6639
RightForeArm  26.9556 13.7498 2.47004
RightHand  0.406476 -8.49144 -5.09727
LeftShoulder1  0.0231551 -1.14607 -9.75934
LeftArm  -14.1742 8.81533 -69.1636
LeftForeArm  23.6789 -31.7974 -6.27076
LeftHand  0.133735 3.83532 3.61613
HEad  10.5812 -12.5483 -0.762354
RightUpLeg  -8.38136 -12.4372 2.64448
RightLeg  16.6708 17.6826 4.01358
RightFoot  -7.88121 -0.201069 -2.54095
RightToes  -36.0909 -0.188033 -0.286558
71
root  8.7853 33.978 5.35664 1.8984 48.5879 -4.09407
LeftUpLeg  -22.5445 1.19707 8.04403
LeftLeg  8.74191 4.01485 0.354198
LeftFoot  13.3227 -0.106745 0.913967
LeftToes  -19.8355 2.48695e-006 -1.03773e-007
Spine  3.88867 -0.741589 0.98792
Spine1  7.66914 -1.63145 2.11027
RightShoulder  0.00908212 4.78972 7.04445
RightArm  -45.0055 -24.878 66.6307
RightForeArm  23.945 17.7481 3.23153
RightHand  0.396827 -8.20259 -5.15589
LeftShoulder1  0.025429 -1.05728 -9.94016
LeftArm  -14.9791 5.31768 -67.5544
LeftForeArm  22.6351 -35.9268 -7.33827
LeftHand  0.131256 3.24544 4.25163
HEad  10.8757 -11.4073 -1.279
RightUpLeg  -8.26369 -11.9274 2.99546
RightLeg  17.4037 19.659 4.70323
RightFoot  -7.74181 -0.21561 -2.80842
RightToes  -35.8521 -0.186224 -0.290513
72
root  9.22898 33.8902 5.59275 1.59658 46.0918 -5.09733
LeftUpLeg  -22.2899 4.54548 8.62724
LeftLeg  3.78234 4.07413 0.00671049
LeftFoot  12.5711 -0.0958004 0.869733
LeftToes  -20.7269 2.48695e-006 -1.03773e-007
Spine  3.85585 -0.869454 1.20047
Spine1  7.56741 -1.90836 2.54464
RightShoulder  0.014008 4.45575 6.7202
RightArm  -41.327 -21.9489 67.7436
RightForeArm  21.6496 22.7838 4.24293
RightHand  0.372502 -7.69681 -5.15887
LeftShoulder1  0.0273617 -1.20114 -10.1668
LeftArm  -17.0522 0.979298 -65.5985
LeftForeArm  21.6718 -39.2149 -8.27393
LeftHand  0.12755 3.02827 4.44242
HEad  11.1826 -10.1497 -1.82122
RightUpLeg  -8.02731 -11.63 3.32138
RightLeg  17.8493 21.7855 5.36107
RightFoot  -7.85037 -0.245165 -3.19465
RightToes  -37.415 -0.198169 -0.300059
73
root  9.74748 33.806 5.83997 1.45042 43.6727 -5.96089
LeftUpLeg  -22.8349 9.85011 8.09654
LeftLeg  1.80419 4.74608 -0.155615
LeftFoot  11.2712 -0.0899092 0.911111
LeftToes  -22.414 2.48695e-006 -1.03773e-007
Spine  3.80128 -1.08727 1.34997
Spine1  7.42036 -2.35238 2.8332
RightShoulder  0.0187977 4.04653 6.285
RightArm  -37.4453 -19.4703 69.2617
RightForeArm  20.2033 28.4372 5.47582
RightHand  0.33858 -6.91006 -5.22856
LeftShoulder1  0.0300444 -1.48912 -10.2794
LeftArm  -20.4887 -4.06398 -63.2926
LeftForeArm  20.0827 -41.0814 -8.84584
LeftHand  0.105042 2.78659 3.93694
HEad  11.3698 -8.88756 -2.2835
RightUpLeg  -7.61563 -11.634 3.40556
RightLeg  18.1696 24.1587 6.04757
RightFoot  -8.00956 -0.283086 -3.66458
RightToes  -38.9514 -0.210161 -0.309123
74
root  10.3175 33.7478 6.07352 1.82948 41.163 -6.21534
LeftUpLeg  -23.3223 13.9788 7.44835
LeftLeg  1.87974 6.31865 -0.198609
LeftFoot  12.4149 -0.145984 1.34211
LeftToes  -23.3415 2.48695e-006 -1.03773e-007
Spine  3.76898 -1.31855 1.2973
Spine1  7.31304 -2.82349 2.74527
RightShoulder  0.0218754 3.646 5.77413
RightArm  -33.8597 -17.386 71.1915
RightForeArm  19.5464 34.2043 6.88324
RightHand  0.313207 -6.17975 -5.4215
LeftShoulder1  0.034591 -2.22619 -10.2323
LeftArm  -24.978 -9.38351 -60.1173
LeftForeArm  17.7876 -41.5829 -9.00444
LeftHand  0.0919972 2.91119 3.24156
HEad  11.1924 -7.75393 -2.47577
RightUpLeg  -7.33111 -11.5742 2.95752
RightLeg  18.6243 26.8881 6.89569
RightFoot  -7.49517 -0.279332 -3.88539
RightToes  -38.8945 -0.209713 -0.312076
75
root  10.9488 33.7267 6.29836 2.62469 38.4375 -5.91414
LeftUpLeg  -23.4286 15.9747 7.20495
LeftLeg  3.5162 7.27494 -0.0213701
LeftFoot  15.8782 -0.27474 1.96987
LeftToes  -22.5832 2.48695e-006 -1.03773e-007
Spine  3.73524 -1.57031 1.02601
Spine1  7.19983 -3.34792 2.26575
RightShoulder  0.0241383 3.33898 5.19746
RightArm  -30.56 -15.7069 73.3882
RightForeArm  19.9417 39.3842 8.32863
RightHand  0.269966 -5.58921 -5.1502
LeftShoulder1  0.0420211 -3.28683 -10.0969
LeftArm  -30.3584 -14.507 -55.6645
LeftForeArm  15.5263 -40.5309 -8.67158
LeftHand  0.0779366 2.92055 2.68022
HEad  10.7515 -6.73125 -2.48143
RightUpLeg  -6.9842 -10.6616 1.99505
RightLeg  18.7347 28.9304 7.42847
RightFoot  -7.1651 -0.277152 -4.04739
RightToes  -38.7916 -0.212821 -0.312479
76
root  11.6764 33.7379 6.52759 3.43569 34.7445 -4.97058
LeftUpLeg  -22.3668 16.9173 7.14688
LeftLeg  4.88428 6.22057 0.129757
LeftFoot  18.5922 -0.318482 1.94549
LeftToes  -26.7462 2.48695e-006 -1.03773e-007
Spine  3.82286 -1.69223 0.441341
Spine1  7.331 -3.6354 1.24631
RightShoulder  0.0261184 3.22173 4.67235
RightArm  -27.0495 -14.3253 75.6084
RightForeArm  20.7462 43.6789 9.7064
RightHand  0.261693 -5.31347 -5.25866
LeftShoulder1  0.0538286 -4.48339 -9.86259
LeftArm  -36.3354 -19.1155 -49.5973
LeftForeArm  13.0167 -37.2783 -7.70891
LeftHand  0.0747154 3.01748 2.46054
HEad  10.4166 -5.55344 -2.21704
RightUpLeg  -6.27074 -8.82521 0.254763
RightLeg  18.6424 30.7684 7.80218
RightFoot  -6.80661 -0.26826 -4.13149
RightToes  -39.6901 -0.217227 -0.313365
77
root  12.4587 33.7835 6.74469 4.30176 30.4281 -3.68669
LeftUpLeg  -20.9833 17.0897 6.85826
LeftLeg  6.57069 7.97628 0.400458
LeftFoot  17.8968 -0.379043 2.40686
LeftToes  -25.7247 2.48695e-006 -1.03773e-007
Spine  3.91198 -1.81534 -0.396769
Spine1  7.47218 -3.95722 -0.187719
RightShoulder  0.0278723 3.38072 4.34342
RightArm  -23.5667 -13.32 77.5886
RightForeArm  22.1516 46.8633 10.8674
RightHand  0.229963 -5.02563 -4.86013
LeftShoulder1  0.0703461 -6.02639 -9.47345
LeftArm  -43.4539 -22.2226 -41.8703
LeftForeArm  12.1601 -31.9166 -6.29674
LeftHand  0.063866 2.73191 2.30211
HEad  10.2893 -4.02323 -1.78136
RightUpLeg  -5.76182 -5.46436 -1.9086
RightLeg  18.4888 31.6039 7.90613
RightFoot  -6.50099 -0.25214 -4.06033
RightToes  -40.1957 -0.220049 -0.316225
78
root  13.251 33.8353 6.92685 5.27137 25.9428 -2.52295
LeftUpLeg  -20.3747 17.1326 6.11886
LeftLeg  9.19036 11.4213 1.09302
LeftFoot  15.6096 -0.41116 2.99899
LeftToes  -20.9465 2.48695e-006 -1.03773e-007
Spine  4.14775 -2.3143 -1.43073
Spine1  7.87355 -5.39535 -1.53139
RightShoulder  0.0295036 3.25921 4.06198
RightArm  -20.4945 -11.7873 79.7876
RightForeArm  24.1907 48.5934 11.5601
RightHand  0.17546 -4.4231 -4.16494
LeftShoulder1  0.118422 -7.82564 -8.81297
LeftArm  -51.7299 -22.9374 -32.8099
LeftForeArm  13.2134 -25.734 -4.86649
LeftHand  0.0509583 1.96911 2.58546
HEad  9.98747 -2.45098 -1.25905
RightUpLeg  -6.20591 -1.45759 -4.07195
RightLeg  19.2634 31.7144 8.35909
RightFoot  -6.44177 -0.247266 -4.0147
RightToes  -40.5318 -0.217775 -0.320503
79
root  14.0393 33.9002 7.02555 6.33332 21.3352 -1.71533
LeftUpLeg  -19.8381 16.5634 5.29197
LeftLeg  10.9301 16.2274 2.03434
LeftFoot  13.4067 -0.438422 3.72892
LeftToes  -18.2866 2.48695e-006 -1.03773e-007
Spine  4.50422 -2.82218 -2.63747
Spine1  8.46628 -6.89459 -2.86873
RightShoulder  0.0310207 3.22611 4.0425
RightArm  -18.0347 -10.5374 81.501
RightForeArm  25.5019 49.4766 11.933
RightHand  0.145657 -4.12021 -3.67175
LeftShoulder1  0.179926 -9.6204 -7.8057
LeftArm  -60.0653 -21.4796 -24.388
LeftForeArm  16.279 -21.7665 -4.0302
LeftHand  0.0209902 0.852901 2.42975
HEad  9.51438 -1.27619 -0.775843
RightUpLeg  -7.94431 2.05084 -6.10461
RightLeg  21.4666 31.5541 9.54784
RightFoot  -6.46536 -0.246391 -3.98318
RightToes  -39.8677 -0.217428 -0.325631
80
root  14.7796 34.0223 7.14928 7.12348 17.5218 -1.68293
LeftUpLeg  -18.7375 15.5783 5.00923
LeftLeg  10.7478 20.4885 2.48311
LeftFoot  12.3386 -0.481815 4.45519
LeftToes  -17.4072 2.48695e-006 -1.03773e-007
Spine  4.78758 -3.14113 -3.56334
Spine1  8.96065 -7.82628 -3.89979
RightShoulder  0.0328603 3.32637 4.27854
RightArm  -16.2254 -10.1613 82.2546
RightForeArm  25.5952 49.531 11.9564
RightHand  0.148076 -4.10436 -3.75464
LeftShoulder1  0.210945 -10.6994 -6.68839
LeftArm  -66.8362 -19.9221 -18.268
LeftForeArm  21.8625 -18.4141 -3.36009
LeftHand  -0.0149083 -0.572574 2.6452
HEad  9.33174 -0.429245 -0.375902
RightUpLeg  -10.0233 3.77368 -7.03954
RightLeg  23.6605 28.7173 9.92349
RightFoot  -5.45108 -0.159221 -2.96649
RightToes  -41.2545 -0.228581 -0.329488
